<mxfile host="Electron" modified="2023-07-22T21:19:14.293Z" agent="Mozilla/5.0 (X11; Linux x86_64) AppleWebKit/537.36 (KHTML, like Gecko) draw.io/21.6.5 Chrome/114.0.5735.243 Electron/25.3.1 Safari/537.36" etag="81BGZ7nqGhVE16H1bhbQ" version="21.6.5" type="device" pages="2">
  <diagram name="Page-1" id="ZtY6GU-9dFR-r4dstIYQ">
    <mxGraphModel dx="1434" dy="775" grid="1" gridSize="10" guides="1" tooltips="1" connect="1" arrows="1" fold="1" page="1" pageScale="1" pageWidth="850" pageHeight="1100" math="0" shadow="0">
      <root>
        <mxCell id="0" />
        <mxCell id="1" parent="0" />
        <mxCell id="PXcae5W2aVeAAcUdFk1Q-16" style="edgeStyle=orthogonalEdgeStyle;rounded=0;orthogonalLoop=1;jettySize=auto;html=1;entryX=1;entryY=0.5;entryDx=0;entryDy=0;exitX=0.5;exitY=1;exitDx=0;exitDy=0;comic=1;" edge="1" parent="1" source="PXcae5W2aVeAAcUdFk1Q-1" target="PXcae5W2aVeAAcUdFk1Q-11">
          <mxGeometry relative="1" as="geometry" />
        </mxCell>
        <mxCell id="PXcae5W2aVeAAcUdFk1Q-1" value="&lt;font style=&quot;font-size: 17px;&quot;&gt;open-playground&lt;/font&gt;" style="rounded=1;whiteSpace=wrap;html=1;fontFamily=Delicious Handrawn;fontSource=https%3A%2F%2Ffonts.googleapis.com%2Fcss%3Ffamily%3DDelicious%2BHandrawn;comic=1;" vertex="1" parent="1">
          <mxGeometry x="641" y="40" width="120" height="60" as="geometry" />
        </mxCell>
        <mxCell id="PXcae5W2aVeAAcUdFk1Q-15" style="edgeStyle=orthogonalEdgeStyle;rounded=0;orthogonalLoop=1;jettySize=auto;html=1;entryX=0;entryY=0.5;entryDx=0;entryDy=0;exitX=0.5;exitY=1;exitDx=0;exitDy=0;comic=1;" edge="1" parent="1" source="PXcae5W2aVeAAcUdFk1Q-3" target="PXcae5W2aVeAAcUdFk1Q-11">
          <mxGeometry relative="1" as="geometry" />
        </mxCell>
        <mxCell id="PXcae5W2aVeAAcUdFk1Q-3" value="&lt;font style=&quot;font-size: 17px;&quot;&gt;VS code&lt;/font&gt;" style="rounded=1;whiteSpace=wrap;html=1;fontFamily=Delicious Handrawn;fontSource=https%3A%2F%2Ffonts.googleapis.com%2Fcss%3Ffamily%3DDelicious%2BHandrawn;comic=1;" vertex="1" parent="1">
          <mxGeometry x="180" y="40" width="120" height="60" as="geometry" />
        </mxCell>
        <mxCell id="PXcae5W2aVeAAcUdFk1Q-17" style="edgeStyle=orthogonalEdgeStyle;rounded=0;orthogonalLoop=1;jettySize=auto;html=1;entryX=0;entryY=0.5;entryDx=0;entryDy=0;exitX=0.5;exitY=1;exitDx=0;exitDy=0;comic=1;" edge="1" parent="1" source="PXcae5W2aVeAAcUdFk1Q-4" target="PXcae5W2aVeAAcUdFk1Q-11">
          <mxGeometry relative="1" as="geometry" />
        </mxCell>
        <mxCell id="PXcae5W2aVeAAcUdFk1Q-4" value="&lt;font style=&quot;font-size: 17px;&quot;&gt;Jupyter Notebook&lt;/font&gt;" style="rounded=1;whiteSpace=wrap;html=1;fontFamily=Delicious Handrawn;fontSource=https%3A%2F%2Ffonts.googleapis.com%2Fcss%3Ffamily%3DDelicious%2BHandrawn;comic=1;" vertex="1" parent="1">
          <mxGeometry x="30" y="40" width="120" height="60" as="geometry" />
        </mxCell>
        <mxCell id="PXcae5W2aVeAAcUdFk1Q-6" value="&lt;font style=&quot;font-size: 14px;&quot;&gt;batch mode&lt;br&gt;llama_index&lt;br&gt;openai client&lt;br&gt;&lt;/font&gt;" style="text;html=1;strokeColor=none;fillColor=none;align=center;verticalAlign=middle;whiteSpace=wrap;rounded=0;fontFamily=Delicious Handrawn;fontSource=https%3A%2F%2Ffonts.googleapis.com%2Fcss%3Ffamily%3DDelicious%2BHandrawn;" vertex="1" parent="1">
          <mxGeometry x="100" y="120" width="130" height="60" as="geometry" />
        </mxCell>
        <mxCell id="PXcae5W2aVeAAcUdFk1Q-8" value="&lt;font style=&quot;font-size: 14px;&quot; data-font-src=&quot;https://fonts.googleapis.com/css?family=Delicious+Handrawn&quot; face=&quot;Delicious Handrawn&quot;&gt;interactive:&lt;br&gt;chat&lt;br&gt;model comparison&lt;br&gt;&lt;/font&gt;" style="text;html=1;strokeColor=none;fillColor=none;align=center;verticalAlign=middle;whiteSpace=wrap;rounded=0;" vertex="1" parent="1">
          <mxGeometry x="536" y="40" width="100" height="60" as="geometry" />
        </mxCell>
        <mxCell id="PXcae5W2aVeAAcUdFk1Q-9" value="target api:&lt;br style=&quot;border-color: var(--border-color); font-size: 14px;&quot;&gt;&lt;span style=&quot;font-size: 14px;&quot;&gt;OpenAI&lt;/span&gt;&lt;br style=&quot;border-color: var(--border-color); font-size: 14px;&quot;&gt;&lt;span style=&quot;font-size: 14px;&quot;&gt;cohere&lt;/span&gt;&lt;br style=&quot;border-color: var(--border-color); font-size: 14px;&quot;&gt;&lt;span style=&quot;font-size: 14px;&quot;&gt;anthropic&lt;/span&gt;" style="text;html=1;strokeColor=none;fillColor=none;align=center;verticalAlign=middle;whiteSpace=wrap;rounded=0;fontFamily=Delicious Handrawn;fontSource=https%3A%2F%2Ffonts.googleapis.com%2Fcss%3Ffamily%3DDelicious%2BHandrawn;" vertex="1" parent="1">
          <mxGeometry x="773" y="30" width="60" height="80" as="geometry" />
        </mxCell>
        <mxCell id="PXcae5W2aVeAAcUdFk1Q-20" style="edgeStyle=orthogonalEdgeStyle;rounded=0;orthogonalLoop=1;jettySize=auto;html=1;entryX=0.5;entryY=0;entryDx=0;entryDy=0;comic=1;" edge="1" parent="1" source="PXcae5W2aVeAAcUdFk1Q-11" target="PXcae5W2aVeAAcUdFk1Q-13">
          <mxGeometry relative="1" as="geometry" />
        </mxCell>
        <mxCell id="PXcae5W2aVeAAcUdFk1Q-21" style="edgeStyle=orthogonalEdgeStyle;rounded=0;orthogonalLoop=1;jettySize=auto;html=1;entryX=0.5;entryY=0;entryDx=0;entryDy=0;comic=1;" edge="1" parent="1" source="PXcae5W2aVeAAcUdFk1Q-11" target="PXcae5W2aVeAAcUdFk1Q-14">
          <mxGeometry relative="1" as="geometry" />
        </mxCell>
        <mxCell id="PXcae5W2aVeAAcUdFk1Q-11" value="&lt;font style=&quot;font-size: 17px;&quot;&gt;llama_api&lt;br&gt;OpenAI compatible&lt;br&gt;&lt;/font&gt;" style="rounded=1;whiteSpace=wrap;html=1;fontFamily=Delicious Handrawn;fontSource=https%3A%2F%2Ffonts.googleapis.com%2Fcss%3Ffamily%3DDelicious%2BHandrawn;comic=1;" vertex="1" parent="1">
          <mxGeometry x="330" y="190" width="120" height="60" as="geometry" />
        </mxCell>
        <mxCell id="PXcae5W2aVeAAcUdFk1Q-12" value="&lt;pre style=&quot;box-sizing: border-box; max-height: 400px; min-height: 6em; overflow: auto; overflow-wrap: break-word; background-image: initial; background-position: initial; background-size: initial; background-repeat: initial; background-attachment: initial; background-origin: initial; background-clip: initial; border-radius: 4px; hyphens: auto; margin-top: 0px; margin-bottom: 0px; padding: 0.5em; word-break: break-word; text-align: start; font-size: 10px;&quot; class=&quot;body-param__example microlight&quot;&gt;&lt;code style=&quot;box-sizing: border-box; word-break: break-all; font-size: 10px;&quot; class=&quot;language-json&quot;&gt;&lt;font style=&quot;font-size: 10px;&quot; data-font-src=&quot;https://fonts.googleapis.com/css?family=Delicious+Handrawn&quot; face=&quot;Delicious Handrawn&quot;&gt;{ &quot;model&quot;: &quot;Writer/camel-5b-hf&quot;,&lt;br style=&quot;font-size: 10px;&quot;&gt;  &lt;span style=&quot;font-size: 10px;&quot; class=&quot;hljs-attr&quot;&gt;&quot;prompt&quot;&lt;/span&gt;: &quot;It was&quot;,&lt;br style=&quot;font-size: 10px;&quot;&gt;  &lt;span style=&quot;font-size: 10px;&quot; class=&quot;hljs-attr&quot;&gt;&quot;temperature&quot;&lt;/span&gt;: 0.7,&lt;br style=&quot;font-size: 10px;&quot;&gt;   &lt;span style=&quot;font-size: 10px;&quot; class=&quot;hljs-attr&quot;&gt;&quot;max_tokens&quot;&lt;/span&gt;: 16,&lt;br style=&quot;font-size: 10px;&quot;&gt;   &lt;span style=&quot;font-size: 10px;&quot; class=&quot;hljs-attr&quot;&gt;&quot;echo&quot;&lt;/span&gt;: false, }&lt;/font&gt;&lt;/code&gt;&lt;/pre&gt;" style="text;html=1;strokeColor=none;fillColor=none;align=center;verticalAlign=middle;whiteSpace=wrap;rounded=0;fontColor=default;labelBackgroundColor=none;fontSize=10;" vertex="1" parent="1">
          <mxGeometry x="430" y="130" width="160" height="92" as="geometry" />
        </mxCell>
        <mxCell id="PXcae5W2aVeAAcUdFk1Q-19" style="edgeStyle=orthogonalEdgeStyle;rounded=0;orthogonalLoop=1;jettySize=auto;html=1;comic=1;" edge="1" parent="1" source="PXcae5W2aVeAAcUdFk1Q-13" target="PXcae5W2aVeAAcUdFk1Q-18">
          <mxGeometry relative="1" as="geometry" />
        </mxCell>
        <mxCell id="PXcae5W2aVeAAcUdFk1Q-13" value="&lt;font style=&quot;font-size: 17px;&quot;&gt;RAY Cluster&lt;br&gt;gpu/cpu inference&lt;br&gt;&lt;/font&gt;" style="rounded=1;whiteSpace=wrap;html=1;fontFamily=Delicious Handrawn;fontSource=https%3A%2F%2Ffonts.googleapis.com%2Fcss%3Ffamily%3DDelicious%2BHandrawn;comic=1;" vertex="1" parent="1">
          <mxGeometry x="230" y="300" width="110" height="60" as="geometry" />
        </mxCell>
        <mxCell id="PXcae5W2aVeAAcUdFk1Q-14" value="&lt;font style=&quot;font-size: 17px;&quot;&gt;pgsql&lt;br&gt;promptnomics&lt;br&gt;prompt analytics&lt;br&gt;&lt;/font&gt;" style="rounded=1;whiteSpace=wrap;html=1;fontFamily=Delicious Handrawn;fontSource=https%3A%2F%2Ffonts.googleapis.com%2Fcss%3Ffamily%3DDelicious%2BHandrawn;comic=1;" vertex="1" parent="1">
          <mxGeometry x="425" y="300" width="120" height="60" as="geometry" />
        </mxCell>
        <mxCell id="PXcae5W2aVeAAcUdFk1Q-18" value="&lt;font style=&quot;font-size: 17px;&quot;&gt;HuggingFace Models&lt;/font&gt;" style="rounded=1;whiteSpace=wrap;html=1;fontFamily=Delicious Handrawn;fontSource=https%3A%2F%2Ffonts.googleapis.com%2Fcss%3Ffamily%3DDelicious%2BHandrawn;comic=1;" vertex="1" parent="1">
          <mxGeometry x="60" y="300" width="120" height="60" as="geometry" />
        </mxCell>
        <mxCell id="PXcae5W2aVeAAcUdFk1Q-22" value="&lt;div style=&quot;padding: 0px 0px 0px 2px; font-size: 10px;&quot;&gt;&lt;div style=&quot;font-size: 10px;&quot;&gt;&lt;p style=&quot;margin: 0px; font-size: 10px;&quot;&gt;&lt;font data-font-src=&quot;https://fonts.googleapis.com/css?family=Delicious+Handrawn&quot; face=&quot;Delicious Handrawn&quot; style=&quot;font-size: 10px;&quot;&gt;select prompt_tokens_cost + completion_tokens_cost &lt;span style=&quot;color: rgb(128, 0, 0); font-weight: bold; font-size: 10px;&quot;&gt;as&lt;/span&gt; total_cost&lt;/font&gt;&lt;/p&gt;&lt;p style=&quot;margin: 0px; font-size: 10px;&quot;&gt;&lt;font data-font-src=&quot;https://fonts.googleapis.com/css?family=Delicious+Handrawn&quot; face=&quot;Delicious Handrawn&quot; style=&quot;font-size: 10px;&quot;&gt;&lt;span style=&quot;color: rgb(128, 0, 0); font-weight: bold; font-size: 10px;&quot;&gt;from&lt;/span&gt; (&lt;span style=&quot;color: rgb(128, 0, 0); font-weight: bold; font-size: 10px;&quot;&gt;select&lt;/span&gt; &lt;span style=&quot;color: rgb(0, 0, 128); font-weight: bold; font-size: 10px;&quot;&gt;sum&lt;/span&gt;((response::&lt;span style=&quot;color: rgb(0, 0, 128); font-weight: bold; font-size: 10px;&quot;&gt;json&lt;/span&gt;-&amp;gt;&lt;span style=&quot;color: rgb(0, 128, 0); font-size: 10px;&quot;&gt;&#39;usage&#39;&lt;/span&gt;-&amp;gt;&amp;gt;&lt;span style=&quot;color: rgb(0, 128, 0); font-size: 10px;&quot;&gt;&#39;prompt_tokens&#39;&lt;/span&gt;)::&lt;span style=&quot;color: rgb(0, 0, 128); font-weight: bold; font-size: 10px;&quot;&gt;int&lt;/span&gt;)*&lt;span style=&quot;color: rgb(0, 0, 255); font-size: 10px;&quot;&gt;0.03&lt;/span&gt;/&lt;span style=&quot;color: rgb(0, 0, 255); font-size: 10px;&quot;&gt;1000&lt;/span&gt; &lt;span style=&quot;color: rgb(128, 0, 0); font-weight: bold; font-size: 10px;&quot;&gt;as&lt;/span&gt; prompt_tokens_cost, &lt;/font&gt;&lt;/p&gt;&lt;p style=&quot;margin: 0px; font-size: 10px;&quot;&gt;&lt;font data-font-src=&quot;https://fonts.googleapis.com/css?family=Delicious+Handrawn&quot; face=&quot;Delicious Handrawn&quot; style=&quot;font-size: 10px;&quot;&gt;&lt;span style=&quot;white-space: pre; font-size: 10px;&quot;&gt;&amp;nbsp;&amp;nbsp;&amp;nbsp;&amp;nbsp;&lt;/span&gt;&lt;span style=&quot;white-space: pre; font-size: 10px;&quot;&gt;&amp;nbsp;&amp;nbsp;&amp;nbsp;&amp;nbsp;&lt;/span&gt;  &lt;span style=&quot;color: rgb(0, 0, 128); font-weight: bold; font-size: 10px;&quot;&gt;sum&lt;/span&gt;((response::&lt;span style=&quot;color: rgb(0, 0, 128); font-weight: bold; font-size: 10px;&quot;&gt;json&lt;/span&gt;-&amp;gt;&lt;span style=&quot;color: rgb(0, 128, 0); font-size: 10px;&quot;&gt;&#39;usage&#39;&lt;/span&gt;-&amp;gt;&amp;gt;&lt;span style=&quot;color: rgb(0, 128, 0); font-size: 10px;&quot;&gt;&#39;completion_tokens&#39;&lt;/span&gt;)::&lt;span style=&quot;color: rgb(0, 0, 128); font-weight: bold; font-size: 10px;&quot;&gt;int&lt;/span&gt;)*&lt;span style=&quot;color: rgb(0, 0, 255); font-size: 10px;&quot;&gt;0.06&lt;/span&gt;/&lt;span style=&quot;color: rgb(0, 0, 255); font-size: 10px;&quot;&gt;1000&lt;/span&gt; &lt;span style=&quot;color: rgb(128, 0, 0); font-weight: bold; font-size: 10px;&quot;&gt;as&lt;/span&gt; completion_tokens_cost&lt;/font&gt;&lt;/p&gt;&lt;p style=&quot;margin: 0px; font-size: 10px;&quot;&gt;&lt;font data-font-src=&quot;https://fonts.googleapis.com/css?family=Delicious+Handrawn&quot; face=&quot;Delicious Handrawn&quot; style=&quot;font-size: 10px;&quot;&gt;&lt;span style=&quot;white-space: pre; font-size: 10px;&quot;&gt;&amp;nbsp;&amp;nbsp;&amp;nbsp;&amp;nbsp;&lt;/span&gt;&lt;span style=&quot;color: rgb(128, 0, 0); font-weight: bold; font-size: 10px;&quot;&gt;from&lt;/span&gt; llm_inference_log ) &lt;span style=&quot;color: rgb(128, 0, 0); font-weight: bold; font-size: 10px;&quot;&gt;as&lt;/span&gt; costs&lt;/font&gt;&lt;/p&gt;&lt;/div&gt;&lt;/div&gt;" style="text;html=1;strokeColor=none;fillColor=none;align=center;verticalAlign=middle;whiteSpace=wrap;rounded=0;fontSize=10;labelBackgroundColor=none;" vertex="1" parent="1">
          <mxGeometry x="548" y="273" width="290" height="100" as="geometry" />
        </mxCell>
        <mxCell id="PXcae5W2aVeAAcUdFk1Q-23" value="POST&amp;nbsp;/v1/completions" style="text;html=1;strokeColor=none;fillColor=none;align=center;verticalAlign=middle;whiteSpace=wrap;rounded=0;fontFamily=Delicious Handrawn;fontSource=https%3A%2F%2Ffonts.googleapis.com%2Fcss%3Ffamily%3DDelicious%2BHandrawn;" vertex="1" parent="1">
          <mxGeometry x="320" y="160" width="130" height="30" as="geometry" />
        </mxCell>
      </root>
    </mxGraphModel>
  </diagram>
  <diagram id="LbOLSoVJI15HB539flRJ" name="Page-2">
    <mxGraphModel dx="1434" dy="775" grid="1" gridSize="10" guides="1" tooltips="1" connect="1" arrows="1" fold="1" page="1" pageScale="1" pageWidth="850" pageHeight="1100" math="0" shadow="0">
      <root>
        <mxCell id="0" />
        <mxCell id="1" parent="0" />
        <mxCell id="Uxq6gN6rEVf8gMgV8oRH-1" style="edgeStyle=orthogonalEdgeStyle;rounded=0;orthogonalLoop=1;jettySize=auto;html=1;entryX=1;entryY=0.5;entryDx=0;entryDy=0;exitX=0.5;exitY=1;exitDx=0;exitDy=0;comic=1;" edge="1" parent="1" source="Uxq6gN6rEVf8gMgV8oRH-2" target="Uxq6gN6rEVf8gMgV8oRH-12">
          <mxGeometry relative="1" as="geometry" />
        </mxCell>
        <mxCell id="Uxq6gN6rEVf8gMgV8oRH-2" value="&lt;font style=&quot;font-size: 20px;&quot;&gt;open-playground&lt;/font&gt;" style="rounded=1;whiteSpace=wrap;html=1;fontFamily=Delicious Handrawn;fontSource=https%3A%2F%2Ffonts.googleapis.com%2Fcss%3Ffamily%3DDelicious%2BHandrawn;comic=1;fontSize=20;" vertex="1" parent="1">
          <mxGeometry x="637" y="40" width="129" height="90" as="geometry" />
        </mxCell>
        <mxCell id="Uxq6gN6rEVf8gMgV8oRH-3" style="edgeStyle=orthogonalEdgeStyle;rounded=0;orthogonalLoop=1;jettySize=auto;html=1;entryX=0;entryY=0.5;entryDx=0;entryDy=0;exitX=0.5;exitY=1;exitDx=0;exitDy=0;comic=1;" edge="1" parent="1" source="Uxq6gN6rEVf8gMgV8oRH-4" target="Uxq6gN6rEVf8gMgV8oRH-12">
          <mxGeometry relative="1" as="geometry" />
        </mxCell>
        <mxCell id="Uxq6gN6rEVf8gMgV8oRH-4" value="&lt;font style=&quot;font-size: 20px;&quot;&gt;VS code&lt;/font&gt;" style="rounded=1;whiteSpace=wrap;html=1;fontFamily=Delicious Handrawn;fontSource=https%3A%2F%2Ffonts.googleapis.com%2Fcss%3Ffamily%3DDelicious%2BHandrawn;comic=1;fontSize=20;" vertex="1" parent="1">
          <mxGeometry x="180" y="40" width="130" height="100" as="geometry" />
        </mxCell>
        <mxCell id="Uxq6gN6rEVf8gMgV8oRH-5" style="edgeStyle=orthogonalEdgeStyle;rounded=0;orthogonalLoop=1;jettySize=auto;html=1;entryX=0;entryY=0.5;entryDx=0;entryDy=0;exitX=0.5;exitY=1;exitDx=0;exitDy=0;comic=1;" edge="1" parent="1" source="Uxq6gN6rEVf8gMgV8oRH-6" target="Uxq6gN6rEVf8gMgV8oRH-12">
          <mxGeometry relative="1" as="geometry" />
        </mxCell>
        <mxCell id="Uxq6gN6rEVf8gMgV8oRH-6" value="&lt;font style=&quot;font-size: 20px;&quot;&gt;Jupyter Notebook&lt;/font&gt;" style="rounded=1;whiteSpace=wrap;html=1;fontFamily=Delicious Handrawn;fontSource=https%3A%2F%2Ffonts.googleapis.com%2Fcss%3Ffamily%3DDelicious%2BHandrawn;comic=1;fontSize=20;" vertex="1" parent="1">
          <mxGeometry x="20" y="40" width="130" height="100" as="geometry" />
        </mxCell>
        <mxCell id="Uxq6gN6rEVf8gMgV8oRH-7" value="&lt;font style=&quot;font-size: 15px;&quot;&gt;batch mode&lt;br style=&quot;font-size: 15px;&quot;&gt;llama_index&lt;br style=&quot;font-size: 15px;&quot;&gt;openai client&lt;br style=&quot;font-size: 15px;&quot;&gt;&lt;/font&gt;" style="text;html=1;strokeColor=none;fillColor=none;align=center;verticalAlign=middle;whiteSpace=wrap;rounded=0;fontFamily=Delicious Handrawn;fontSource=https%3A%2F%2Ffonts.googleapis.com%2Fcss%3Ffamily%3DDelicious%2BHandrawn;fontSize=15;" vertex="1" parent="1">
          <mxGeometry x="99" y="146" width="130" height="60" as="geometry" />
        </mxCell>
        <mxCell id="Uxq6gN6rEVf8gMgV8oRH-8" value="&lt;font style=&quot;font-size: 15px;&quot; data-font-src=&quot;https://fonts.googleapis.com/css?family=Delicious+Handrawn&quot; face=&quot;Delicious Handrawn&quot;&gt;interactive:&lt;br style=&quot;font-size: 15px;&quot;&gt;chat&lt;br style=&quot;font-size: 15px;&quot;&gt;model comparison&lt;br style=&quot;font-size: 15px;&quot;&gt;&lt;/font&gt;" style="text;html=1;strokeColor=none;fillColor=none;align=center;verticalAlign=middle;whiteSpace=wrap;rounded=0;fontSize=15;" vertex="1" parent="1">
          <mxGeometry x="529" y="50" width="100" height="60" as="geometry" />
        </mxCell>
        <mxCell id="Uxq6gN6rEVf8gMgV8oRH-9" value="target api:&lt;br style=&quot;border-color: var(--border-color); font-size: 15px;&quot;&gt;&lt;span style=&quot;font-size: 15px;&quot;&gt;OpenAI&lt;/span&gt;&lt;br style=&quot;border-color: var(--border-color); font-size: 15px;&quot;&gt;&lt;span style=&quot;font-size: 15px;&quot;&gt;cohere&lt;/span&gt;&lt;br style=&quot;border-color: var(--border-color); font-size: 15px;&quot;&gt;&lt;span style=&quot;font-size: 15px;&quot;&gt;anthropic&lt;/span&gt;" style="text;html=1;strokeColor=none;fillColor=none;align=center;verticalAlign=middle;whiteSpace=wrap;rounded=0;fontFamily=Delicious Handrawn;fontSource=https%3A%2F%2Ffonts.googleapis.com%2Fcss%3Ffamily%3DDelicious%2BHandrawn;fontSize=15;" vertex="1" parent="1">
          <mxGeometry x="773" y="37" width="60" height="80" as="geometry" />
        </mxCell>
        <mxCell id="Uxq6gN6rEVf8gMgV8oRH-10" style="edgeStyle=orthogonalEdgeStyle;rounded=0;orthogonalLoop=1;jettySize=auto;html=1;entryX=0.5;entryY=0;entryDx=0;entryDy=0;comic=1;exitX=0.508;exitY=1.15;exitDx=0;exitDy=0;exitPerimeter=0;" edge="1" parent="1" source="Uxq6gN6rEVf8gMgV8oRH-12" target="Uxq6gN6rEVf8gMgV8oRH-15">
          <mxGeometry relative="1" as="geometry">
            <mxPoint x="390" y="367" as="sourcePoint" />
          </mxGeometry>
        </mxCell>
        <mxCell id="Uxq6gN6rEVf8gMgV8oRH-11" style="edgeStyle=orthogonalEdgeStyle;rounded=0;orthogonalLoop=1;jettySize=auto;html=1;entryX=0.5;entryY=0;entryDx=0;entryDy=0;comic=1;exitX=0.5;exitY=1;exitDx=0;exitDy=0;" edge="1" parent="1" source="Uxq6gN6rEVf8gMgV8oRH-12" target="Uxq6gN6rEVf8gMgV8oRH-16">
          <mxGeometry relative="1" as="geometry">
            <mxPoint x="450" y="290" as="sourcePoint" />
          </mxGeometry>
        </mxCell>
        <mxCell id="Uxq6gN6rEVf8gMgV8oRH-12" value="&lt;font style=&quot;font-size: 20px;&quot;&gt;llama_api&lt;br style=&quot;font-size: 20px;&quot;&gt;OpenAI compatible&lt;br style=&quot;font-size: 20px;&quot;&gt;&lt;/font&gt;" style="rounded=1;whiteSpace=wrap;html=1;fontFamily=Delicious Handrawn;fontSource=https%3A%2F%2Ffonts.googleapis.com%2Fcss%3Ffamily%3DDelicious%2BHandrawn;comic=1;fontSize=20;" vertex="1" parent="1">
          <mxGeometry x="330" y="276" width="150" height="102" as="geometry" />
        </mxCell>
        <mxCell id="Uxq6gN6rEVf8gMgV8oRH-13" value="&lt;pre style=&quot;box-sizing: border-box; max-height: 400px; min-height: 6em; overflow: auto; overflow-wrap: break-word; background-image: initial; background-position: initial; background-size: initial; background-repeat: initial; background-attachment: initial; background-origin: initial; background-clip: initial; border-radius: 4px; hyphens: auto; margin-top: 0px; margin-bottom: 0px; padding: 0.5em; word-break: break-word; text-align: start; font-size: 14px;&quot; class=&quot;body-param__example microlight&quot;&gt;&lt;code style=&quot;box-sizing: border-box; word-break: break-all; font-size: 14px;&quot; class=&quot;language-json&quot;&gt;&lt;font style=&quot;font-size: 14px;&quot; data-font-src=&quot;https://fonts.googleapis.com/css?family=Delicious+Handrawn&quot; face=&quot;Delicious Handrawn&quot;&gt;{ &quot;model&quot;: &quot;Writer/camel-5b-hf&quot;,&lt;br style=&quot;font-size: 14px;&quot;&gt;  &lt;span style=&quot;font-size: 14px;&quot; class=&quot;hljs-attr&quot;&gt;&quot;prompt&quot;&lt;/span&gt;: &quot;It was&quot;,&lt;br style=&quot;font-size: 14px;&quot;&gt;  &lt;span style=&quot;font-size: 14px;&quot; class=&quot;hljs-attr&quot;&gt;&quot;temperature&quot;&lt;/span&gt;: 0.7,&lt;br style=&quot;font-size: 14px;&quot;&gt;   &lt;span style=&quot;font-size: 14px;&quot; class=&quot;hljs-attr&quot;&gt;&quot;max_tokens&quot;&lt;/span&gt;: 16,&lt;br style=&quot;font-size: 14px;&quot;&gt;   &lt;span style=&quot;font-size: 14px;&quot; class=&quot;hljs-attr&quot;&gt;&quot;echo&quot;&lt;/span&gt;: false, }&lt;/font&gt;&lt;/code&gt;&lt;/pre&gt;" style="text;html=1;strokeColor=none;fillColor=none;align=center;verticalAlign=middle;whiteSpace=wrap;rounded=0;fontColor=default;labelBackgroundColor=none;fontSize=14;" vertex="1" parent="1">
          <mxGeometry x="469" y="235" width="160" height="92" as="geometry" />
        </mxCell>
        <mxCell id="Uxq6gN6rEVf8gMgV8oRH-14" style="edgeStyle=orthogonalEdgeStyle;rounded=0;orthogonalLoop=1;jettySize=auto;html=1;comic=1;" edge="1" parent="1" source="Uxq6gN6rEVf8gMgV8oRH-15" target="Uxq6gN6rEVf8gMgV8oRH-17">
          <mxGeometry relative="1" as="geometry" />
        </mxCell>
        <mxCell id="Uxq6gN6rEVf8gMgV8oRH-15" value="&lt;font style=&quot;font-size: 20px;&quot;&gt;RAY Cluster&lt;br style=&quot;font-size: 20px;&quot;&gt;gpu/cpu inference&lt;br style=&quot;font-size: 20px;&quot;&gt;&lt;/font&gt;" style="rounded=1;whiteSpace=wrap;html=1;fontFamily=Delicious Handrawn;fontSource=https%3A%2F%2Ffonts.googleapis.com%2Fcss%3Ffamily%3DDelicious%2BHandrawn;comic=1;fontSize=20;" vertex="1" parent="1">
          <mxGeometry x="230" y="640" width="130" height="87" as="geometry" />
        </mxCell>
        <mxCell id="Uxq6gN6rEVf8gMgV8oRH-16" value="&lt;font style=&quot;font-size: 20px;&quot;&gt;pgsql&lt;br style=&quot;font-size: 20px;&quot;&gt;promptnomics&lt;br style=&quot;font-size: 20px;&quot;&gt;prompt analytics&lt;br style=&quot;font-size: 20px;&quot;&gt;&lt;/font&gt;" style="rounded=1;whiteSpace=wrap;html=1;fontFamily=Delicious Handrawn;fontSource=https%3A%2F%2Ffonts.googleapis.com%2Fcss%3Ffamily%3DDelicious%2BHandrawn;comic=1;fontSize=20;" vertex="1" parent="1">
          <mxGeometry x="460" y="640" width="130" height="87" as="geometry" />
        </mxCell>
        <mxCell id="Uxq6gN6rEVf8gMgV8oRH-17" value="&lt;font style=&quot;font-size: 20px;&quot;&gt;HuggingFace Models&lt;/font&gt;" style="rounded=1;whiteSpace=wrap;html=1;fontFamily=Delicious Handrawn;fontSource=https%3A%2F%2Ffonts.googleapis.com%2Fcss%3Ffamily%3DDelicious%2BHandrawn;comic=1;fontSize=20;" vertex="1" parent="1">
          <mxGeometry x="30" y="640" width="150" height="87" as="geometry" />
        </mxCell>
        <mxCell id="Uxq6gN6rEVf8gMgV8oRH-18" value="&lt;div style=&quot;padding: 0px 0px 0px 2px; font-size: 11px;&quot;&gt;&lt;div style=&quot;&quot;&gt;&lt;p style=&quot;margin: 0px;&quot;&gt;&lt;font data-font-src=&quot;https://fonts.googleapis.com/css?family=Delicious+Handrawn&quot; face=&quot;Delicious Handrawn&quot; style=&quot;font-size: 11px;&quot;&gt;select prompt_tokens_cost + completion_tokens_cost &lt;span style=&quot;color: rgb(128, 0, 0); font-weight: bold;&quot;&gt;as&lt;/span&gt; total_cost&lt;/font&gt;&lt;/p&gt;&lt;p style=&quot;margin: 0px;&quot;&gt;&lt;font data-font-src=&quot;https://fonts.googleapis.com/css?family=Delicious+Handrawn&quot; face=&quot;Delicious Handrawn&quot; style=&quot;font-size: 11px;&quot;&gt;&lt;span style=&quot;color: rgb(128, 0, 0); font-weight: bold;&quot;&gt;from&lt;/span&gt; (&lt;span style=&quot;color: rgb(128, 0, 0); font-weight: bold;&quot;&gt;select&lt;/span&gt; &lt;span style=&quot;color: rgb(0, 0, 128); font-weight: bold;&quot;&gt;sum&lt;/span&gt;((response::&lt;span style=&quot;color: rgb(0, 0, 128); font-weight: bold;&quot;&gt;json&lt;/span&gt;-&amp;gt;&lt;span style=&quot;color: rgb(0, 128, 0);&quot;&gt;&#39;usage&#39;&lt;/span&gt;-&amp;gt;&amp;gt;&lt;span style=&quot;color: rgb(0, 128, 0);&quot;&gt;&#39;prompt_tokens&#39;&lt;/span&gt;)::&lt;span style=&quot;color: rgb(0, 0, 128); font-weight: bold;&quot;&gt;int&lt;/span&gt;)*&lt;span style=&quot;color: rgb(0, 0, 255);&quot;&gt;0.03&lt;/span&gt;/&lt;span style=&quot;color: rgb(0, 0, 255);&quot;&gt;1000&lt;/span&gt; &lt;span style=&quot;color: rgb(128, 0, 0); font-weight: bold;&quot;&gt;as&lt;/span&gt; prompt_tokens_cost, &lt;/font&gt;&lt;/p&gt;&lt;p style=&quot;margin: 0px;&quot;&gt;&lt;font data-font-src=&quot;https://fonts.googleapis.com/css?family=Delicious+Handrawn&quot; face=&quot;Delicious Handrawn&quot; style=&quot;font-size: 11px;&quot;&gt;&lt;span style=&quot;white-space: pre;&quot;&gt;&amp;nbsp;&amp;nbsp;&amp;nbsp;&amp;nbsp;&lt;/span&gt;&lt;span style=&quot;white-space: pre;&quot;&gt;&amp;nbsp;&amp;nbsp;&amp;nbsp;&amp;nbsp;&lt;/span&gt;  &lt;span style=&quot;color: rgb(0, 0, 128); font-weight: bold;&quot;&gt;sum&lt;/span&gt;((response::&lt;span style=&quot;color: rgb(0, 0, 128); font-weight: bold;&quot;&gt;json&lt;/span&gt;-&amp;gt;&lt;span style=&quot;color: rgb(0, 128, 0);&quot;&gt;&#39;usage&#39;&lt;/span&gt;-&amp;gt;&amp;gt;&lt;span style=&quot;color: rgb(0, 128, 0);&quot;&gt;&#39;completion_tokens&#39;&lt;/span&gt;)::&lt;span style=&quot;color: rgb(0, 0, 128); font-weight: bold;&quot;&gt;int&lt;/span&gt;)*&lt;span style=&quot;color: rgb(0, 0, 255);&quot;&gt;0.06&lt;/span&gt;/&lt;span style=&quot;color: rgb(0, 0, 255);&quot;&gt;1000&lt;/span&gt; &lt;span style=&quot;color: rgb(128, 0, 0); font-weight: bold;&quot;&gt;as&lt;/span&gt; completion_tokens_cost&lt;/font&gt;&lt;/p&gt;&lt;p style=&quot;margin: 0px;&quot;&gt;&lt;font data-font-src=&quot;https://fonts.googleapis.com/css?family=Delicious+Handrawn&quot; face=&quot;Delicious Handrawn&quot; style=&quot;font-size: 11px;&quot;&gt;&lt;span style=&quot;white-space: pre;&quot;&gt;&amp;nbsp;&amp;nbsp;&amp;nbsp;&amp;nbsp;&lt;/span&gt;&lt;span style=&quot;color: rgb(128, 0, 0); font-weight: bold;&quot;&gt;from&lt;/span&gt; llm_inference_log ) &lt;span style=&quot;color: rgb(128, 0, 0); font-weight: bold;&quot;&gt;as&lt;/span&gt; costs&lt;/font&gt;&lt;/p&gt;&lt;/div&gt;&lt;/div&gt;" style="text;html=1;strokeColor=none;fillColor=none;align=center;verticalAlign=middle;whiteSpace=wrap;rounded=0;fontSize=10;labelBackgroundColor=none;" vertex="1" parent="1">
          <mxGeometry x="530" y="505" width="313" height="124" as="geometry" />
        </mxCell>
        <mxCell id="Uxq6gN6rEVf8gMgV8oRH-19" value="POST&amp;nbsp;/v1/completions" style="text;html=1;strokeColor=none;fillColor=none;align=center;verticalAlign=middle;whiteSpace=wrap;rounded=0;fontFamily=Delicious Handrawn;fontSource=https%3A%2F%2Ffonts.googleapis.com%2Fcss%3Ffamily%3DDelicious%2BHandrawn;fontSize=14;" vertex="1" parent="1">
          <mxGeometry x="333" y="242" width="130" height="30" as="geometry" />
        </mxCell>
      </root>
    </mxGraphModel>
  </diagram>
</mxfile>
